<svg xmlns="http://www.w3.org/2000/svg" viewBox="0 0 96 96" width="96" height="96">
  <rect width="96" height="96" rx="20" fill="#0A1430"/>
  <g transform="translate(48 48) scale(0.8) translate(-48 -48)">
    <path d="M48 9 L80 19 Q83 20 83 23 L83 47 Q83 70 48 89 Q13 70 13 47 L13 23 Q13 20 16 19 Z" fill="none" stroke="#1CA9F2" stroke-width="3.6" stroke-linejoin="round"/>
    <path d="M48 9 L80 19 Q83 20 83 23 L83 47 Q83 70 48 89 Q13 70 13 47 L13 23 Q13 20 16 19 Z" fill="none" stroke="#F1F8FF" stroke-width="2.2" stroke-linejoin="round" transform="translate(48 48) scale(0.85) translate(-48 -48)"/>
    <g stroke="#1CA9F2" stroke-width="2.2" stroke-linecap="round">
      <line x1="48" y1="48" x2="48" y2="23"/>
      <line x1="48" y1="48" x2="65.7" y2="30.3"/>
      <line x1="48" y1="48" x2="73" y2="48"/>
      <line x1="48" y1="48" x2="65.7" y2="65.7"/>
      <line x1="48" y1="48" x2="48" y2="73"/>
      <line x1="48" y1="48" x2="30.3" y2="65.7"/>
      <line x1="48" y1="48" x2="23" y2="48"/>
      <line x1="48" y1="48" x2="30.3" y2="30.3"/>
    </g>
    <g fill="#1CA9F2" stroke="#F1F8FF" stroke-width="1.5">
      <circle cx="48" cy="23" r="4.8"/>
      <circle cx="65.7" cy="30.3" r="4.8"/>
      <circle cx="73" cy="48" r="4.8"/>
      <circle cx="65.7" cy="65.7" r="4.8"/>
      <circle cx="48" cy="73" r="4.8"/>
      <circle cx="30.3" cy="65.7" r="4.8"/>
      <circle cx="23" cy="48" r="4.8"/>
      <circle cx="30.3" cy="30.3" r="4.8"/>
    </g>
    <circle cx="48" cy="48" r="10" fill="none" stroke="#F1F8FF" stroke-width="2.6"/>
    <circle cx="48" cy="48" r="5.6" fill="#1CA9F2"/>
  </g>
</svg>
